<?xml version="1.0" encoding="utf-8"?>
<!-- Generator: Adobe Illustrator 22.0.1, SVG Export Plug-In . SVG Version: 6.00 Build 0)  -->
<svg version="1.1" id="Layer_1" xmlns="http://www.w3.org/2000/svg" xmlns:xlink="http://www.w3.org/1999/xlink" x="0px" y="0px"
	 viewBox="0 0 512 512" style="enable-background:new 0 0 512 512;" xml:space="preserve">
<style type="text/css">
	.st0{fill:#8EC13F;}
	.st1{fill:#F98C96;}
	.st2{fill:#FF001F;}
	.st3{fill:#D3843D;}
	.st4{fill:#AD6327;}
	.st5{fill:#66342E;}
	.st6{fill:#F9BB4B;}
	.st7{fill:#91CDF2;}
	.st8{fill:#9362F5;}
	.st9{fill:#FCF05A;}
	.st10{fill:#E97424;}
</style>
<g id="flat">
	<path class="st0" d="M113.6,368.5L63,132.2l16.8,2.1l48,224L113.6,368.5z"/>
	<path class="st0" d="M355.5,457.6l-208.1-69.4l15.1-11.8l192,64L355.5,457.6z"/>
	<path class="st0" d="M398.1,424.3L384.3,414l48-184l15.5,4L398.1,424.3z"/>
	<path class="st1" d="M72,56l16,32l32,4.7l-24,24.6l8,34.7l-32-16l-32,16l8-34.7L24,92.7L56,88L72,56z"/>
	<path class="st2" d="M440,168l16,24l24,6.6l-20,20.5l6.7,28.9L440,234.7L413.3,248l6.7-28.9l-20-20.5l24-6.6L440,168z"/>
	<path class="st1" d="M136,336l16,24l24,6.6l-20,20.5l6.7,28.9L136,402.7L109.3,416l6.7-28.9l-20-20.5l24-6.6L136,336z"/>
	<path class="st1" d="M376,384l16,32l32,4.7l-24,24.6l8,34.7l-32-16l-32,16l8-34.7l-24-24.6l32-4.7L376,384z"/>
	<circle class="st3" cx="240" cy="224" r="112"/>
	<path class="st4" d="M328,224h-16c0-39.7-32.3-72-72-72v-16C288.6,136.1,327.9,175.4,328,224z"/>
	<circle class="st5" cx="176" cy="232" r="16"/>
	<circle class="st5" cx="200" cy="176" r="24"/>
	<circle class="st5" cx="272" cy="264" r="16"/>
	<path class="st4" d="M312,240h16v16h-16V240z"/>
	<path class="st4" d="M208,288h16v16h-16V288z"/>
	<path class="st4" d="M248,176h16v16h-16V176z"/>
	<g>
		<path class="st6" d="M464,328h16v16h-16V328z"/>
		<path class="st6" d="M464,360h16v16h-16V360z"/>
		<path class="st6" d="M448,344h16v16h-16V344z"/>
		<path class="st6" d="M480,344h16v16h-16V344z"/>
		<path class="st6" d="M32,208h16v16H32V208z"/>
		<path class="st6" d="M32,240h16v16H32V240z"/>
		<path class="st6" d="M16,224h16v16H16V224z"/>
		<path class="st6" d="M48,224h16v16H48V224z"/>
		<path class="st6" d="M280,352h16v16h-16V352z"/>
		<path class="st6" d="M280,384h16v16h-16V384z"/>
		<path class="st6" d="M264,368h16v16h-16V368z"/>
		<path class="st6" d="M296,368h16v16h-16V368z"/>
	</g>
	<path class="st7" d="M479.4,45c-3.6-8.6-21.4-8.4-45.4-3.4l-3.1,0.7l10.9,13.5c0.9-0.2,1.8-0.4,2.6-0.6c5.9-1.4,11.8-2.2,17.8-2.5
		c-4.7,3.9-9.8,7.3-15.2,10.2c-9.3,5.3-20.6,11-30.3,15.8l-4.2,2.2c-11.6,6-23.7,11.2-36.1,15.5c-5.4,2.2-11.2,3.4-17,3.5
		c0.2-2.7,4.2-6.9,11.8-12.3c0.5-0.3,1-0.7,1.4-1L369.8,69c-0.6,0.4-1.2,0.8-1.8,1.2c-12.9,9.3-29,23.5-23.5,36.9
		c1.5,3.6,4.5,6.4,8.2,7.7c2.4,0.9,4.9,1.3,7.4,1.3c10.6-0.8,21-3.4,30.7-7.8c7.8-3,17.3-7.3,28.7-13l4.2-2.1
		c8.4-4.2,16.1-8.1,23-11.8C471,68.5,484.8,58.1,479.4,45z"/>
	<path class="st8" d="M423.8,93c8.4-4.2,16.1-8.1,23-11.8c-4.3,18-20.4,30.7-38.9,30.7c-5.9,0-11.8-1.3-17.1-3.8
		c7.8-3,17.3-7.3,28.7-13L423.8,93z"/>
	<path class="st8" d="M412.4,80.9c-11.6,6-23.7,11.2-36.1,15.5c-5.5-7-8.4-15.6-8.3-24.4c0-0.6,0-1.2,0.1-1.8
		c1-22.1,19.8-39.1,41.8-38.1c8.9,0.4,17.3,3.8,24.1,9.5c4.4,3.7,7.9,8.4,10.3,13.7c1.1,2.5,2,5,2.6,7.7c-9.3,5.3-20.6,11-30.3,15.8
		L412.4,80.9z"/>
	<circle class="st9" cx="184" cy="56" r="16"/>
	<circle class="st9" cx="360" cy="336" r="16"/>
	<circle class="st9" cx="48" cy="312" r="24"/>
	<path class="st10" d="M304,64h16v16h-16V64z"/>
	<path class="st10" d="M376,144h16v16h-16V144z"/>
	<path class="st10" d="M184,440h16v16h-16V440z"/>
</g>
</svg>
