<svg height="472pt" viewBox="0 -4 472 472" width="472pt" xmlns="http://www.w3.org/2000/svg"><path d="m232 232.003906c-3.683594.007813-6.886719 2.53125-7.757812 6.109375-.867188 3.582031.820312 7.292969 4.089843 8.992188 3.269531 1.695312 7.277344.9375 9.703125-1.832031 2.429688-2.773438 2.648438-6.84375.53125-9.863282-1.492187-2.148437-3.949218-3.421875-6.566406-3.40625zm0 0"/><path d="m292.59375 206.554688c2.449219-1.59375 3.832031-4.398438 3.609375-7.3125-.222656-2.914063-2.015625-5.476563-4.679687-6.679688-2.664063-1.207031-5.773438-.863281-8.109376.894531-3.613281 2.535157-4.496093 7.519531-1.964843 11.136719 2.535156 3.621094 7.523437 4.496094 11.144531 1.960938zm0 0"/><path d="m351.664062 73.8125c-3.640624 4.335938-7.054687 8.679688-10.222656 12.972656 11.03125 4 19.84375 12.503906 24.238282 23.386719 7.105468 19.34375-3.601563 42.621094-28.625 62.214844-2.792969 2.199219-6.707032 2.285156-9.597657.214843-10.503906-7.554687-22.410156-12.925781-35.023437-15.796874-1.867188-.421876-3.523438-1.492188-4.664063-3.027344l-25.730469-34.496094 1.648438 28.273438c.230469 4.03125-2.574219 7.601562-6.542969 8.328124-23.429687 4.304688-43.824219 18.589844-55.878906 39.136719-2.046875 3.484375-6.367187 4.898438-10.074219 3.296875l-26.007812-11.203125 23.625 36c1.050781 1.601563 1.492187 3.519531 1.246094 5.417969-1.625 12.839844-.652344 25.878906 2.855468 38.335938.949219 3.417968-.46875 7.050781-3.476562 8.925781-26.984375 16.800781-52.503906 18.898437-68.28125 5.601562-8.710938-7.855469-13.675782-19.039062-13.664063-30.769531-5.136719 1.515625-10.398437 3.242188-15.695312 5.179688-27.121094 9.242187-52.039063 23.992187-73.183594 43.324218-8.570313 7.589844-14.988281 17.300782-18.609375 28.160156 1.589844-2.585937 3.367188-5.050781 5.320312-7.375 14.066407-15.855468 34.488282-24.585937 55.671876-23.792968 27.785156.738281 54.449218 11.121094 75.414062 29.371094 5.5625 4.648437 10.742188 9.730468 15.496094 15.199218 6.945312 8.015625 12.835937 16.886719 17.53125 26.398438 6.933594-12.539063 15.097656-24.359375 24.367187-35.285156 5.171875-6.164063 10.65625-12.058594 16.421875-17.664063 3.101563-2.988281 8.007813-2.988281 11.105469 0 32.238281 30.796875 80.085937 36.0625 113.734375 12.503906 33.648438-23.5625 45.066406-70.320312 27.144531-111.160156-1.71875-3.933594-.027343-8.523437 3.832031-10.402344 7.246094-3.511719 14.667969-6.652343 22.234376-9.40625 13.433593-4.972656 27.328124-8.597656 41.480468-10.824219-7.339844-7.648437-13.664062-16.210937-18.816406-25.472656-3.519531-6.355468-6.535156-12.972656-9.015625-19.800781-19.609375-53.878906-1.851563-110 39.597656-125.078125 2.855469-1.042969 5.785157-1.878906 8.761719-2.496094-11.457031-.3125-22.792969 2.390625-32.875 7.839844-25.398438 13.265625-47.78125 31.640625-65.742188 53.96875zm-105.894531 185.855469c-10.859375 7.59375-25.820312 4.953125-33.421875-5.902344-7.597656-10.859375-4.960937-25.820313 5.894532-33.421875 10.855468-7.601562 25.816406-4.96875 33.421874 5.882812 7.589844 10.867188 4.953126 25.824219-5.894531 33.441407zm18.597657-63.832031c1.085937-6.277344 4.640624-11.855469 9.871093-15.488282 10.855469-7.605468 25.820313-4.972656 33.425781 5.878906 6.230469 8.898438 5.707032 20.871094-1.273437 29.191407-6.984375 8.320312-18.683594 10.914062-28.527344 6.324219-9.847656-4.589844-15.378906-15.21875-13.496093-25.914063zm54.832031 98.3125c-.675781 3.816406-3.992188 6.601562-7.871094 6.605468-.46875 0-.933594-.042968-1.390625-.128906l-31.539062-5.550781c-4.25-.863281-7.039063-4.957031-6.285157-9.226563.75-4.273437 4.773438-7.167968 9.0625-6.523437l23.632813 4.167969 4.167968-23.648438c.769532-4.351562 4.917969-7.257812 9.269532-6.488281 4.355468.769531 7.257812 4.917969 6.488281 9.269531zm0 0"/><path d="m56 112.003906c3.308594 0 6.601562-.398437 9.816406-1.183594-19.117187-11.132812-31.632812-30.863281-33.558594-52.902343-1.921874-22.039063 6.984376-43.640625 23.886719-57.91406275h-.144531c-26.472656 0-48 25.12499975-48 55.99999975 0 30.871094 21.527344 56 48 56zm0 0"/><path d="m136 72.003906c9.375.199219 18.460938-3.261718 25.328125-9.648437 2.394531-2.378907 6.023437-3 9.070313-1.550781 11.453124 5.609374 25.171874 3.667968 34.617187-4.898438 2.0625-1.792969 4.894531-2.417969 7.519531-1.664062 3.71875 1.136718 7.578125 1.730468 11.464844 1.761718 17.648438 0 32-10.769531 32-24 0-16-20.726562-28.914062-43.480469-22.265625-2.625.757813-5.457031.132813-7.519531-1.664062-7.757812-6.941407-18.429688-9.628907-28.550781-7.195313-10.121094 2.4375-18.398438 9.691406-22.144531 19.402344-1.449219 3.679688-5.363282 5.75-9.214844 4.875-2.976563-.730469-6.027344-1.117188-9.089844-1.152344-17.648438 0-32 10.765625-32 24 0 13.230469 14.351562 24 32 24zm0 0"/><path d="m400 464.003906c-4.417969 0-8-3.582031-8-8 0-4.417968 3.582031-8 8-8 30.914062-.035156 55.964844-25.085937 56-56 0-4.417968 3.582031-8 8-8s8 3.582032 8 8c-.042969 39.746094-32.253906 71.953125-72 72zm0 0"/><path d="m384 424.003906c-4.417969 0-8-3.582031-8-8 0-4.417968 3.582031-8 8-8 17.671875 0 32-14.328125 32-32 0-4.417968 3.582031-8 8-8s8 3.582032 8 8c-.027344 26.496094-21.5 47.972656-48 48zm0 0"/><path d="m368 384.003906c-4.417969 0-8-3.582031-8-8 0-4.417968 3.582031-8 8-8s8-3.582031 8-8c0-4.417968 3.582031-8 8-8s8 3.582032 8 8c0 13.253906-10.746094 24-24 24zm0 0"/></svg>